<svg width="40" height="40" viewBox="0 0 40 40" fill="none" xmlns="http://www.w3.org/2000/svg">
<path fill-rule="evenodd" clip-rule="evenodd" d="M20 40C31.0457 40 40 31.0457 40 20C40 8.9543 31.0457 0 20 0C8.9543 0 0 8.9543 0 20C0 31.0457 8.9543 40 20 40ZM32.5202 12.4488C32.9464 12.8528 33.2552 13.3647 33.4137 13.9302V13.9291C33.8318 16.0481 34.0272 18.205 33.997 20.3647C34.0108 22.5153 33.8151 24.6621 33.4125 26.7747C33.2586 27.3323 32.9518 27.8444 32.5202 28.2561C32.0819 28.6726 31.5447 28.9705 30.9594 29.1217C27.3182 29.5285 23.6555 29.7116 19.9918 29.6699C19.9918 29.6699 11.2582 29.6699 9.03831 29.0937C8.44572 28.9362 7.9068 28.6387 7.47402 28.227C7.04125 27.8152 6.72979 27.3054 6.56998 26.7467C6.17686 24.6306 5.98672 22.4854 6.00072 20.3379C5.98706 18.1884 6.17767 16.0425 6.56998 13.9291C6.73329 13.368 7.04591 12.8559 7.47752 12.4406C7.91679 12.021 8.45295 11.7164 9.03831 11.554C12.6748 11.1473 16.3329 10.9642 19.9918 11.0058C19.9918 11.0058 28.7687 11.0058 30.9594 11.5832C31.5447 11.7344 32.0819 12.0323 32.5202 12.4488ZM17.2015 16.3449V24.332L24.5039 20.339L17.2015 16.3449Z" fill="#828282"/>
</svg>
