<svg width="40" height="40" viewBox="0 0 40 40" fill="none" xmlns="http://www.w3.org/2000/svg">
<path fill-rule="evenodd" clip-rule="evenodd" d="M40 20C40 31.0457 31.0457 40 20 40C8.9543 40 0 31.0457 0 20C0 8.9543 8.9543 0 20 0C31.0457 0 40 8.9543 40 20ZM20 7C16.47 7 16.027 7.015 14.64 7.078C13.256 7.141 12.311 7.361 11.484 7.682C10.6167 8.00865 9.83112 8.52055 9.182 9.182C8.52042 9.83141 8.00852 10.6174 7.682 11.485C7.361 12.311 7.142 13.256 7.078 14.64C7.015 16.027 7 16.47 7 20C7 23.53 7.015 23.973 7.078 25.36C7.141 26.744 7.361 27.689 7.682 28.515C8.015 29.37 8.459 30.095 9.182 30.818C9.83112 31.4795 10.6167 31.9914 11.484 32.318C12.311 32.638 13.256 32.858 14.64 32.922C16.027 32.985 16.47 33 20 33C23.53 33 23.973 32.985 25.36 32.922C26.744 32.859 27.689 32.639 28.515 32.318C29.3827 31.9915 30.1686 31.4796 30.818 30.818C31.4796 30.1686 31.9915 29.3826 32.318 28.515C32.638 27.689 32.858 26.744 32.922 25.36C32.985 23.973 33 23.53 33 20C33 16.47 32.985 16.027 32.922 14.64C32.859 13.256 32.639 12.311 32.317 11.485C31.9908 10.6174 31.4792 9.83151 30.818 9.182C30.1686 8.5204 29.3827 8.00849 28.515 7.682C27.689 7.362 26.744 7.142 25.36 7.078C23.973 7.015 23.53 7 20 7ZM20 9.342C23.471 9.342 23.882 9.356 25.253 9.418C26.52 9.476 27.209 9.688 27.667 9.866C28.274 10.102 28.707 10.383 29.162 10.838C29.617 11.293 29.898 11.726 30.134 12.333C30.312 12.791 30.524 13.479 30.582 14.747C30.644 16.117 30.658 16.529 30.658 20C30.658 23.471 30.644 23.882 30.582 25.253C30.524 26.521 30.312 27.209 30.134 27.667C29.9258 28.2317 29.5936 28.7425 29.162 29.162C28.7426 29.5936 28.2317 29.9258 27.667 30.134C27.209 30.312 26.52 30.524 25.253 30.582C23.883 30.644 23.471 30.658 20 30.658C16.529 30.658 16.117 30.644 14.747 30.582C13.479 30.524 12.791 30.312 12.333 30.134C11.7683 29.9258 11.2574 29.5936 10.838 29.162C10.4064 28.7425 10.0743 28.2317 9.866 27.667C9.688 27.209 9.476 26.521 9.418 25.253C9.356 23.883 9.342 23.471 9.342 20C9.342 16.529 9.356 16.118 9.418 14.747C9.476 13.479 9.688 12.791 9.866 12.333C10.102 11.726 10.383 11.293 10.838 10.838C11.2575 10.4064 11.7683 10.0742 12.333 9.866C12.791 9.688 13.479 9.476 14.747 9.418C16.117 9.356 16.529 9.342 20 9.342ZM15.0509 15.0502C16.3637 13.7375 18.1441 13 20.0007 13C21.8572 13 23.6376 13.7375 24.9504 15.0502C26.2632 16.363 27.0007 18.1434 27.0007 20C27.0007 21.8565 26.2632 23.637 24.9504 24.9497C23.6376 26.2625 21.8572 27 20.0007 27C18.1441 27 16.3637 26.2625 15.0509 24.9497C13.7381 23.637 13.0007 21.8565 13.0007 20C13.0007 18.1434 13.7381 16.363 15.0509 15.0502ZM16.8187 23.1819C17.6626 24.0259 18.8072 24.5 20.0007 24.5C21.1941 24.5 22.3387 24.0259 23.1826 23.1819C24.0265 22.338 24.5007 21.1934 24.5007 20C24.5007 18.8065 24.0265 17.6619 23.1826 16.818C22.3387 15.9741 21.1941 15.5 20.0007 15.5C18.8072 15.5 17.6626 15.9741 16.8187 16.818C15.9748 17.6619 15.5007 18.8065 15.5007 20C15.5007 21.1934 15.9748 22.338 16.8187 23.1819ZM28.5789 13.7123C28.6593 13.5181 28.7007 13.3101 28.7007 13.1C28.7007 12.6756 28.5321 12.2686 28.232 11.9686C27.932 11.6685 27.525 11.5 27.1006 11.5C26.6763 11.5 26.2693 11.6685 25.9693 11.9686C25.6692 12.2686 25.5007 12.6756 25.5007 13.1C25.5007 13.3101 25.542 13.5181 25.6224 13.7123C25.7029 13.9064 25.8207 14.0828 25.9693 14.2313C26.1179 14.3799 26.2942 14.4978 26.4884 14.5782C26.6825 14.6586 26.8905 14.7 27.1006 14.7C27.3108 14.7 27.5188 14.6586 27.7129 14.5782C27.9071 14.4978 28.0834 14.3799 28.232 14.2313C28.3806 14.0828 28.4985 13.9064 28.5789 13.7123Z" fill="#828282"/>
</svg>
