<svg width="93" height="14" viewBox="0 0 93 14" fill="none" xmlns="http://www.w3.org/2000/svg">
<path fill-rule="evenodd" clip-rule="evenodd" d="M78.3516 1.92622C79.0893 1.1419 79.9693 0.499824 80.9915 0H90.2816C90.5593 0.170274 90.8163 0.361174 91.0527 0.572701C92.2741 1.64822 92.8848 3.13846 92.8848 5.0434C92.8848 6.48351 92.6432 7.83247 92.1602 9.09028C91.6771 10.3481 90.998 11.4282 90.123 12.3305C89.4789 12.994 88.7619 13.5505 87.9721 14H77.9593C77.79 13.8804 77.6291 13.7523 77.4766 13.6157C76.2552 12.5219 75.6445 11.0089 75.6445 9.07661C75.6445 7.70942 75.8724 6.41059 76.3281 5.18012C76.7839 3.94965 77.4583 2.86502 78.3516 1.92622ZM86.4863 10.0747C86.9056 9.43663 87.2201 8.73937 87.4297 7.98286C87.6484 7.22635 87.7578 6.30577 87.7578 5.22114C87.7578 4.28234 87.5527 3.56228 87.1426 3.06098C86.7324 2.55057 86.0807 2.29536 85.1875 2.29536C84.4948 2.29536 83.8841 2.46398 83.3555 2.80122C82.8359 3.13846 82.3757 3.61697 81.9746 4.23676C81.6009 4.81098 81.3047 5.52192 81.0859 6.36958C80.8763 7.21723 80.7715 8.08767 80.7715 8.9809C80.7715 10.0291 81.0039 10.781 81.4688 11.2368C81.9336 11.6834 82.5716 11.9067 83.3828 11.9067C83.9753 11.9067 84.5449 11.7472 85.0918 11.4282C85.6387 11.1 86.1035 10.6489 86.4863 10.0747Z" fill="#C51733"/>
<path fill-rule="evenodd" clip-rule="evenodd" d="M0 14L3.22885 0H8.1762L7.91436 1.11958C8.57692 0.68384 9.20039 0.310648 9.78477 0H16.6524C17.4169 0.665316 17.7991 1.63096 17.7991 2.89692C17.7991 3.17036 17.7809 3.46658 17.7444 3.78559C17.708 4.1046 17.6487 4.43728 17.5667 4.78364L15.4486 14H10.472L12.0433 7.16254C12.1709 6.59744 12.2711 6.11437 12.3441 5.71333C12.417 5.31228 12.4534 4.93859 12.4534 4.59223C12.4534 3.99978 12.303 3.56684 12.0023 3.2934C11.7015 3.01997 11.15 2.88325 10.348 2.88325C9.95603 2.88325 9.50486 2.96984 8.99444 3.14301C8.48403 3.30708 7.90981 3.55773 7.27179 3.89497L4.94865 14H0ZM71.2856 14L73.4163 4.78364C73.4983 4.42817 73.5576 4.08637 73.5941 3.75825C73.6396 3.43012 73.6624 3.12478 73.6624 2.84223C73.6624 1.6127 73.3075 0.665288 72.5976 0H66.0414C65.2456 0.423047 64.3725 0.978531 63.4222 1.66645C63.2072 0.978602 62.8627 0.423118 62.3887 0H55.9251C55.3545 0.310648 54.7409 0.68384 54.0843 1.11958L54.3461 0H49.3983L46.1569 14H51.1059L53.4417 3.89497C54.025 3.58507 54.5491 3.33898 55.014 3.15669C55.4788 2.97439 55.9072 2.88325 56.2991 2.88325C57.0556 2.88325 57.5706 3.01085 57.8441 3.26606C58.1266 3.51215 58.2679 3.9132 58.2679 4.46918C58.2679 4.74262 58.2178 5.13911 58.1175 5.65864C58.0172 6.17817 57.917 6.66124 57.8167 7.10786L56.2196 14H61.1957L63.5316 3.89497C64.1696 3.55773 64.7119 3.30708 65.1585 3.14301C65.6142 2.96984 66.0198 2.88325 66.3753 2.88325C67.1227 2.88325 67.6422 3.00629 67.9339 3.25239C68.2256 3.49848 68.3714 3.88585 68.3714 4.4145C68.3714 4.71528 68.3213 5.10721 68.221 5.59028C68.1299 6.07335 68.025 6.57921 67.9066 7.10786L66.3094 14H71.2856ZM41.153 14C41.317 13.913 41.4757 13.8214 41.6292 13.725C43.1969 12.7316 43.9808 11.378 43.9808 9.6645C43.9808 8.51606 43.5524 7.62283 42.6956 6.98481C41.848 6.34679 40.458 5.81814 38.5257 5.39887C37.4866 5.17101 36.7256 4.95226 36.2425 4.74262C35.7594 4.52387 35.5179 4.21398 35.5179 3.81294C35.5179 3.2934 35.7959 2.91059 36.3519 2.6645C36.917 2.40929 37.7236 2.28169 38.7718 2.28169C39.7379 2.28169 40.6767 2.44119 41.5882 2.7602C42.5088 3.0701 43.2926 3.4757 43.9398 3.977H44.3636L45.2659 0.094185C45.2015 0.0625285 45.1327 0.0311335 45.0596 0H33.917C33.5934 0.151005 33.2885 0.319118 33.0023 0.504341C31.4528 1.49783 30.678 2.86046 30.678 4.59223C30.678 5.61307 31.0608 6.46528 31.8265 7.14887C32.6012 7.83247 34.0322 8.4158 36.1194 8.89887C37.3499 9.18143 38.1611 9.4184 38.553 9.60981C38.945 9.80122 39.1409 10.0792 39.1409 10.4438C39.1409 10.9178 38.8629 11.2823 38.3069 11.5375C37.7601 11.7928 36.9352 11.9204 35.8323 11.9204C35.0941 11.9204 34.4059 11.8474 33.7679 11.7016C33.1299 11.5467 32.5693 11.3644 32.0862 11.1547C31.5211 10.9269 31.0836 10.7081 30.7737 10.4985C30.473 10.2888 30.2223 10.0974 30.0218 9.92426H29.5706L28.6273 13.9711C28.6466 13.9808 28.6661 13.9904 28.6859 14H41.153ZM24.9108 14L28.1522 0H23.2029L19.9616 14H24.9108Z" fill="white"/>
</svg>
