<svg width="50" height="50" viewBox="0 0 50 50" fill="none" xmlns="http://www.w3.org/2000/svg">
<path fill-rule="evenodd" clip-rule="evenodd" d="M41.7084 30.4348C39.4198 37.4757 32.8043 42.5653 25.0002 42.5653C17.196 42.5653 10.5805 37.4757 8.29187 30.4348H6.19965C8.55474 38.5963 16.0804 44.5653 25.0002 44.5653C33.9199 44.5653 41.4456 38.5963 43.8007 30.4348H41.7084ZM8.29187 19.5653C10.5805 12.5243 17.196 7.43481 25.0002 7.43481C32.8043 7.43481 39.4198 12.5243 41.7084 19.5653H43.8007C41.4456 11.4038 33.9199 5.43481 25.0002 5.43481C16.0804 5.43481 8.55474 11.4038 6.19965 19.5653H8.29187Z" fill="#4F4F4F"/>
<path d="M2.04376 28.2609C2.09956 28.2609 2.15536 28.2051 2.21115 28.0935C2.26695 27.9819 2.29485 27.7986 2.29485 27.5435V21.8044C2.29485 21.5493 2.26695 21.3699 2.21115 21.2663C2.15536 21.1547 2.09956 21.0949 2.04376 21.087H3.89702C3.88905 21.1109 3.91695 21.1826 3.98072 21.3022C4.05246 21.4218 4.17999 21.5971 4.36333 21.8283C4.41912 21.9 4.5347 22.0435 4.71007 22.2587C4.8934 22.4739 5.12057 22.741 5.39159 23.0598C5.6626 23.3707 5.95355 23.7134 6.26441 24.0881C6.58326 24.4547 6.9021 24.8294 7.22094 25.212C7.54775 25.5866 7.85862 25.9453 8.15355 26.2881H8.17746V21.8044C8.17746 21.5493 8.14956 21.3699 8.09376 21.2663C8.03797 21.1547 7.98217 21.0949 7.92637 21.087H9.76768C9.71188 21.087 9.65608 21.1428 9.60028 21.2544C9.54449 21.366 9.51659 21.5533 9.51659 21.8163V27.5435C9.51659 27.7986 9.54449 27.9819 9.60028 28.0935C9.65608 28.2051 9.71188 28.2609 9.76768 28.2609H8.20137C8.20934 28.237 8.17746 28.1652 8.10572 28.0457C8.03398 27.9181 7.90644 27.7428 7.72311 27.5196C7.60355 27.3681 7.42818 27.1569 7.19702 26.8859C6.97384 26.6069 6.71876 26.292 6.43181 25.9413C6.14485 25.5826 5.83797 25.208 5.51115 24.8174C5.19231 24.4268 4.87347 24.0362 4.55463 23.6457C4.24376 23.2551 3.94883 22.8924 3.66985 22.5576H3.63398V27.5435C3.63398 27.7986 3.66188 27.9819 3.71768 28.0935C3.77347 28.2051 3.82927 28.2609 3.88507 28.2609H2.04376Z" fill="#4F4F4F"/>
<path d="M11.198 28.2609C11.2538 28.2609 11.3096 28.2051 11.3654 28.0935C11.4212 27.9819 11.4491 27.7986 11.4491 27.5435V21.8044C11.4491 21.5493 11.4212 21.3699 11.3654 21.2663C11.3096 21.1547 11.2538 21.0949 11.198 21.087H13.0393C12.9835 21.087 12.9277 21.1428 12.8719 21.2544C12.8161 21.366 12.7882 21.5533 12.7882 21.8163V27.5435C12.7882 27.7986 12.8161 27.9819 12.8719 28.0935C12.9277 28.2051 12.9835 28.2609 13.0393 28.2609H11.198Z" fill="#4F4F4F"/>
<path d="M18.2334 28.3805C17.3645 28.3805 16.5953 28.3406 15.9258 28.2609C15.2562 28.1812 14.7739 28.1015 14.479 28.0218V27.7826L14.2399 26.5033C14.3515 26.6308 14.5627 26.7663 14.8736 26.9098C15.1924 27.0533 15.6149 27.1768 16.141 27.2805C16.6671 27.3761 17.2928 27.4239 18.0181 27.4239C18.6718 27.4239 19.166 27.3801 19.5008 27.2924C19.8435 27.1968 20.0747 27.0692 20.1942 26.9098C20.3218 26.7424 20.3855 26.5511 20.3855 26.3359C20.3855 25.9533 20.1504 25.6823 19.6801 25.5228C19.2178 25.3634 18.5323 25.2279 17.6236 25.1163C16.8344 25.0127 16.2008 24.8772 15.7225 24.7098C15.2442 24.5344 14.8975 24.3033 14.6823 24.0163C14.4671 23.7294 14.3594 23.3667 14.3594 22.9283C14.3594 22.3703 14.6145 21.904 15.1247 21.5294C15.6348 21.1547 16.4279 20.9674 17.504 20.9674C18.333 20.9674 19.0544 21.0073 19.6681 21.087C20.2819 21.1667 20.7163 21.2464 20.9714 21.3261V21.5652L21.3301 22.6413C21.1627 22.5377 20.9037 22.4301 20.5529 22.3185C20.2102 22.2069 19.7957 22.1152 19.3094 22.0435C18.8232 21.9638 18.2812 21.9239 17.6834 21.9239C16.9341 21.9239 16.416 22.0036 16.129 22.1631C15.8421 22.3225 15.6986 22.5536 15.6986 22.8565C15.6986 23.2551 15.9178 23.5381 16.3562 23.7055C16.7946 23.8649 17.4203 23.9924 18.2334 24.0881C19.0942 24.1837 19.7797 24.3192 20.2899 24.4946C20.8 24.6699 21.1667 24.9051 21.3899 25.2C21.6131 25.4949 21.7247 25.8776 21.7247 26.3478C21.7247 26.9776 21.4297 27.4757 20.8399 27.8424C20.25 28.2011 19.3812 28.3805 18.2334 28.3805Z" fill="#4F4F4F"/>
<path d="M26.6753 28.3805C25.8065 28.3805 25.0373 28.3406 24.3677 28.2609C23.6981 28.1812 23.2159 28.1015 22.921 28.0218V27.7826L22.6818 26.5033C22.7934 26.6308 23.0047 26.7663 23.3155 26.9098C23.6344 27.0533 24.0568 27.1768 24.5829 27.2805C25.109 27.3761 25.7347 27.4239 26.4601 27.4239C27.1137 27.4239 27.6079 27.3801 27.9427 27.2924C28.2855 27.1968 28.5166 27.0692 28.6362 26.9098C28.7637 26.7424 28.8275 26.5511 28.8275 26.3359C28.8275 25.9533 28.5923 25.6823 28.1221 25.5228C27.6597 25.3634 26.9742 25.2279 26.0655 25.1163C25.2764 25.0127 24.6427 24.8772 24.1644 24.7098C23.6862 24.5344 23.3395 24.3033 23.1242 24.0163C22.909 23.7294 22.8014 23.3667 22.8014 22.9283C22.8014 22.3703 23.0565 21.904 23.5666 21.5294C24.0768 21.1547 24.8699 20.9674 25.946 20.9674C26.775 20.9674 27.4963 21.0073 28.1101 21.087C28.7239 21.1667 29.1583 21.2464 29.4134 21.3261V21.5652L29.7721 22.6413C29.6047 22.5377 29.3456 22.4301 28.9949 22.3185C28.6521 22.2069 28.2376 22.1152 27.7514 22.0435C27.2652 21.9638 26.7231 21.9239 26.1253 21.9239C25.376 21.9239 24.8579 22.0036 24.571 22.1631C24.284 22.3225 24.1405 22.5536 24.1405 22.8565C24.1405 23.2551 24.3597 23.5381 24.7981 23.7055C25.2366 23.8649 25.8623 23.9924 26.6753 24.0881C27.5362 24.1837 28.2217 24.3192 28.7318 24.4946C29.242 24.6699 29.6087 24.9051 29.8318 25.2C30.055 25.4949 30.1666 25.8776 30.1666 26.3478C30.1666 26.9776 29.8717 27.4757 29.2818 27.8424C28.692 28.2011 27.8231 28.3805 26.6753 28.3805Z" fill="#4F4F4F"/>
<path d="M30.7412 28.2609C30.7731 28.2609 30.8289 28.2051 30.9086 28.0935C30.9883 27.9819 31.0919 27.7946 31.2195 27.5315C31.2752 27.412 31.3709 27.2087 31.5064 26.9218C31.6419 26.6348 31.8013 26.296 31.9847 25.9055C32.168 25.5149 32.3593 25.1083 32.5586 24.6859C32.7579 24.2555 32.9452 23.8449 33.1205 23.4544C33.3039 23.0638 33.4633 22.721 33.5988 22.4261C33.7343 22.1312 33.83 21.9239 33.8858 21.8044C33.9974 21.5493 34.0571 21.366 34.0651 21.2544C34.0731 21.1428 34.0571 21.087 34.0173 21.087H36.1097C36.0778 21.087 36.0658 21.1428 36.0738 21.2544C36.0818 21.366 36.1376 21.5493 36.2412 21.8044C36.297 21.9239 36.3887 22.1312 36.5162 22.4261C36.6437 22.7131 36.7952 23.0518 36.9705 23.4424C37.1539 23.833 37.3412 24.2395 37.5325 24.662C37.7238 25.0765 37.9111 25.479 38.0945 25.8696C38.2778 26.2602 38.4372 26.6029 38.5727 26.8978C38.7082 27.1928 38.8079 27.404 38.8716 27.5315C38.9992 27.7946 39.1147 27.9819 39.2184 28.0935C39.33 28.2051 39.4137 28.2609 39.4695 28.2609H37.2575C37.3372 28.2449 37.401 28.1812 37.4488 28.0696C37.5046 27.958 37.4966 27.7786 37.4249 27.5315C37.4089 27.4678 37.381 27.3761 37.3412 27.2565C37.3013 27.137 37.2655 27.0493 37.2336 26.9935C37.1618 26.8341 37.0861 26.7344 37.0064 26.6946C36.9347 26.6547 36.7952 26.6348 36.5879 26.6348H33.5271C33.2959 26.6348 33.1365 26.6507 33.0488 26.6826C32.9691 26.7145 32.9013 26.8141 32.8455 26.9815C32.8137 27.0772 32.7818 27.1728 32.7499 27.2685C32.718 27.3641 32.6941 27.4518 32.6781 27.5315C32.6064 27.7946 32.5865 27.9819 32.6184 28.0935C32.6503 28.2051 32.6941 28.2609 32.7499 28.2609H30.7412ZM33.8379 25.6783H36.2412C36.4724 25.6783 36.5999 25.6583 36.6238 25.6185C36.6477 25.5786 36.6358 25.491 36.5879 25.3555C36.4445 25.0127 36.2771 24.6381 36.0858 24.2315C35.9024 23.825 35.7191 23.4265 35.5358 23.0359C35.3604 22.6453 35.205 22.3145 35.0695 22.0435H35.0455C34.8781 22.3942 34.7068 22.7609 34.5314 23.1435C34.356 23.5181 34.1887 23.8728 34.0292 24.2076C33.8778 24.5344 33.7542 24.8015 33.6586 25.0087C33.5629 25.216 33.5151 25.3196 33.5151 25.3196C33.4593 25.4471 33.4394 25.5388 33.4553 25.5946C33.4792 25.6504 33.6068 25.6783 33.8379 25.6783Z" fill="#4F4F4F"/>
<path d="M40.2369 28.2609C40.2927 28.2609 40.3485 28.2051 40.4043 28.0935C40.4601 27.9819 40.488 27.7986 40.488 27.5435V21.8044C40.488 21.5493 40.4601 21.3699 40.4043 21.2663C40.3485 21.1547 40.2927 21.0949 40.2369 21.087H42.0902C42.0822 21.1109 42.1101 21.1826 42.1739 21.3022C42.2456 21.4218 42.3731 21.5971 42.5565 21.8283C42.6123 21.9 42.7279 22.0435 42.9032 22.2587C43.0865 22.4739 43.3137 22.741 43.5847 23.0598C43.8558 23.3707 44.1467 23.7134 44.4576 24.0881C44.7764 24.4547 45.0952 24.8294 45.4141 25.212C45.7409 25.5866 46.0518 25.9453 46.3467 26.2881H46.3706V21.8044C46.3706 21.5493 46.3427 21.3699 46.2869 21.2663C46.2311 21.1547 46.1753 21.0949 46.1195 21.087H47.9608C47.905 21.087 47.8492 21.1428 47.7934 21.2544C47.7376 21.366 47.7097 21.5533 47.7097 21.8163V27.5435C47.7097 27.7986 47.7376 27.9819 47.7934 28.0935C47.8492 28.2051 47.905 28.2609 47.9608 28.2609H46.3945C46.4025 28.237 46.3706 28.1652 46.2989 28.0457C46.2271 27.9181 46.0996 27.7428 45.9163 27.5196C45.7967 27.3681 45.6213 27.1569 45.3902 26.8859C45.167 26.6069 44.9119 26.292 44.625 25.9413C44.338 25.5826 44.0311 25.208 43.7043 24.8174C43.3855 24.4268 43.0666 24.0362 42.7478 23.6457C42.4369 23.2551 42.142 22.8924 41.863 22.5576H41.8271V27.5435C41.8271 27.7986 41.855 27.9819 41.9108 28.0935C41.9666 28.2051 42.0224 28.2609 42.0782 28.2609H40.2369Z" fill="#4F4F4F"/>
<path d="M28.936 32.6631C28.628 32.6631 28.3689 32.6341 28.1588 32.5762C27.9486 32.5182 27.8037 32.462 27.724 32.4077L27.8327 31.8479V31.7392C27.8834 31.808 27.9559 31.8805 28.0501 31.9566C28.1479 32.0327 28.2639 32.0979 28.3979 32.1523C28.532 32.203 28.6787 32.2283 28.8381 32.2283C29.1062 32.2283 29.291 32.1722 29.3925 32.0599C29.4975 31.9475 29.5501 31.7501 29.5501 31.4675V29.674C29.5501 29.558 29.5374 29.4765 29.512 29.4294C29.4867 29.3787 29.4613 29.3515 29.436 29.3479H30.2729C30.2476 29.3479 30.2222 29.3733 30.1968 29.424C30.1715 29.4747 30.1588 29.5599 30.1588 29.6794V31.4675C30.1588 31.7863 30.1081 32.0327 30.0066 32.2066C29.9088 32.3769 29.7675 32.4965 29.5827 32.5653C29.4015 32.6305 29.186 32.6631 28.936 32.6631Z" fill="#2F80ED"/>
<path d="M30.8711 32.6088C30.8964 32.6088 30.9218 32.5834 30.9472 32.5327C30.9725 32.482 30.9852 32.3986 30.9852 32.2827V29.674C30.9852 29.558 30.9725 29.4765 30.9472 29.4294C30.9218 29.3787 30.8964 29.3515 30.8711 29.3479H32.5776C32.9001 29.3479 33.1682 29.3787 33.3819 29.4403C33.5993 29.5019 33.7733 29.587 33.9037 29.6957C34.0377 29.8044 34.1392 29.9294 34.208 30.0707C34.2769 30.2084 34.3222 30.3551 34.3439 30.5109C34.3693 30.6667 34.3819 30.8244 34.3819 30.9838C34.3819 31.1287 34.3693 31.2791 34.3439 31.4349C34.3222 31.587 34.2751 31.7338 34.2026 31.8751C34.1338 32.0128 34.0323 32.1378 33.8983 32.2501C33.7678 32.3588 33.5939 32.4457 33.3765 32.5109C33.1627 32.5762 32.8964 32.6088 32.5776 32.6088H30.8711ZM31.8113 32.1686H32.4798C32.9435 32.1686 33.2751 32.078 33.4743 31.8968C33.6736 31.7157 33.7733 31.424 33.7733 31.0218V30.924C33.7733 30.6414 33.7334 30.4186 33.6537 30.2555C33.574 30.0888 33.4399 29.9711 33.2515 29.9022C33.0631 29.8298 32.8059 29.7936 32.4798 29.7936H31.8113C31.7062 29.7936 31.6428 29.8008 31.6211 29.8153C31.603 29.8262 31.5939 29.8696 31.5939 29.9457V32.0055C31.5939 32.0852 31.603 32.1323 31.6211 32.1468C31.6428 32.1613 31.7062 32.1686 31.8113 32.1686Z" fill="#2F80ED"/>
<path d="M34.9525 32.6088C34.9778 32.6088 35.0032 32.5834 35.0286 32.5327C35.0539 32.482 35.0666 32.3986 35.0666 32.2827V29.674C35.0666 29.558 35.0539 29.4765 35.0286 29.4294C35.0032 29.3787 34.9778 29.3515 34.9525 29.3479H35.9579C35.9507 29.3479 35.9543 29.3733 35.9688 29.424C35.9833 29.4747 36.0177 29.5617 36.072 29.6849C36.0938 29.732 36.1318 29.8153 36.1862 29.9349C36.2441 30.0544 36.313 30.1975 36.3927 30.3642C36.4724 30.5272 36.5575 30.703 36.6481 30.8914C36.7387 31.0798 36.8311 31.2718 36.9253 31.4675C37.0195 31.6595 37.1083 31.8407 37.1916 32.0109H37.197C37.284 31.837 37.3746 31.6541 37.4688 31.462C37.563 31.2664 37.6572 31.0725 37.7514 30.8805C37.8456 30.6885 37.9325 30.5109 38.0123 30.3479C38.092 30.1812 38.159 30.0399 38.2133 29.924C38.2713 29.8044 38.3112 29.7211 38.3329 29.674C38.3836 29.558 38.4162 29.4747 38.4307 29.424C38.4489 29.3733 38.4543 29.3479 38.447 29.3479H39.447C39.4217 29.3479 39.3963 29.3733 39.371 29.424C39.3456 29.4747 39.3329 29.5599 39.3329 29.6794V32.2827C39.3329 32.3986 39.3456 32.482 39.371 32.5327C39.3963 32.5834 39.4217 32.6088 39.447 32.6088H38.6155C38.6409 32.6088 38.6644 32.5834 38.6862 32.5327C38.7115 32.482 38.7242 32.3986 38.7242 32.2827V30.0327H38.7133C38.6191 30.2211 38.5177 30.4276 38.409 30.6522C38.3003 30.8733 38.1934 31.0925 38.0883 31.3099C37.9833 31.5236 37.8891 31.7175 37.8057 31.8914C37.726 32.0617 37.6662 32.1921 37.6264 32.2827C37.5757 32.395 37.5485 32.4765 37.5449 32.5273C37.5449 32.578 37.5539 32.6051 37.572 32.6088H36.8112C36.8293 32.6088 36.8383 32.5852 36.8383 32.5381C36.8383 32.4874 36.8112 32.4023 36.7568 32.2827C36.7242 32.2066 36.6681 32.0852 36.5883 31.9186C36.5086 31.7519 36.4162 31.5599 36.3112 31.3425C36.2097 31.1251 36.1046 30.9022 35.996 30.674C35.8873 30.4421 35.7858 30.2283 35.6916 30.0327H35.6753V32.2827C35.6753 32.3986 35.688 32.482 35.7133 32.5327C35.7387 32.5834 35.7641 32.6088 35.7894 32.6088H34.9525Z" fill="#2F80ED"/>
<path d="M45.6523 19.0664L42.3914 18.5229V19.0664H45.6523Z" stroke="#4F4F4F"/>
<path d="M4.34735 19.0635L7.60822 18.52V19.0635H4.34735Z" stroke="#4F4F4F"/>
<path d="M45.6523 30.9365L42.3914 31.48V30.9365H45.6523Z" stroke="#4F4F4F"/>
<path d="M4.34735 30.9365L7.60822 31.48V30.9365H4.34735Z" stroke="#4F4F4F"/>
</svg>
