<svg width="50" height="50" viewBox="0 0 50 50" fill="none" xmlns="http://www.w3.org/2000/svg">
<path fill-rule="evenodd" clip-rule="evenodd" d="M41.708 30.4348C39.4193 37.4757 32.8039 42.5653 24.9997 42.5653C17.1956 42.5653 10.5801 37.4757 8.29145 30.4348H6.19922C8.55432 38.5963 16.08 44.5653 24.9997 44.5653C33.9195 44.5653 41.4451 38.5963 43.8002 30.4348H41.708ZM8.29144 19.5653C10.5801 12.5243 17.1956 7.43481 24.9997 7.43481C32.8039 7.43481 39.4193 12.5243 41.708 19.5653H43.8002C41.4451 11.4038 33.9195 5.43481 24.9997 5.43481C16.08 5.43481 8.55432 11.4038 6.19922 19.5653H8.29144Z" fill="white"/>
<path d="M2.04297 28.2609C2.09877 28.2609 2.15456 28.2051 2.21036 28.0935C2.26616 27.9819 2.29406 27.7986 2.29406 27.5435V21.8044C2.29406 21.5493 2.26616 21.3699 2.21036 21.2663C2.15456 21.1547 2.09877 21.0949 2.04297 21.087H3.89623C3.88826 21.1109 3.91616 21.1826 3.97993 21.3022C4.05166 21.4218 4.1792 21.5971 4.36253 21.8283C4.41833 21.9 4.53391 22.0435 4.70927 22.2587C4.89261 22.4739 5.11978 22.741 5.3908 23.0598C5.66181 23.3707 5.95275 23.7134 6.26362 24.0881C6.58246 24.4547 6.9013 24.8294 7.22014 25.212C7.54696 25.5866 7.85782 25.9453 8.15275 26.2881H8.17667V21.8044C8.17667 21.5493 8.14877 21.3699 8.09297 21.2663C8.03717 21.1547 7.98138 21.0949 7.92558 21.087H9.76688C9.71109 21.087 9.65529 21.1428 9.59949 21.2544C9.54369 21.366 9.5158 21.5533 9.5158 21.8163V27.5435C9.5158 27.7986 9.54369 27.9819 9.59949 28.0935C9.65529 28.2051 9.71109 28.2609 9.76688 28.2609H8.20058C8.20855 28.237 8.17667 28.1652 8.10493 28.0457C8.03319 27.9181 7.90565 27.7428 7.72232 27.5196C7.60275 27.3681 7.42739 27.1569 7.19623 26.8859C6.97304 26.6069 6.71797 26.292 6.43101 25.9413C6.14406 25.5826 5.83717 25.208 5.51036 24.8174C5.19152 24.4268 4.87268 24.0362 4.55384 23.6457C4.24297 23.2551 3.94804 22.8924 3.66906 22.5576H3.63319V27.5435C3.63319 27.7986 3.66108 27.9819 3.71688 28.0935C3.77268 28.2051 3.82848 28.2609 3.88427 28.2609H2.04297Z" fill="white"/>
<path d="M11.1972 28.2609C11.253 28.2609 11.3088 28.2051 11.3646 28.0935C11.4204 27.9819 11.4483 27.7986 11.4483 27.5435V21.8044C11.4483 21.5493 11.4204 21.3699 11.3646 21.2663C11.3088 21.1547 11.253 21.0949 11.1972 21.087H13.0385C12.9827 21.087 12.9269 21.1428 12.8711 21.2544C12.8153 21.366 12.7874 21.5533 12.7874 21.8163V27.5435C12.7874 27.7986 12.8153 27.9819 12.8711 28.0935C12.9269 28.2051 12.9827 28.2609 13.0385 28.2609H11.1972Z" fill="white"/>
<path d="M18.2326 28.3805C17.3637 28.3805 16.5945 28.3406 15.925 28.2609C15.2554 28.1812 14.7731 28.1015 14.4782 28.0218V27.7826L14.2391 26.5033C14.3507 26.6308 14.5619 26.7663 14.8728 26.9098C15.1916 27.0533 15.6141 27.1768 16.1402 27.2805C16.6663 27.3761 17.292 27.4239 18.0174 27.4239C18.671 27.4239 19.1652 27.3801 19.5 27.2924C19.8427 27.1968 20.0739 27.0692 20.1934 26.9098C20.321 26.7424 20.3847 26.5511 20.3847 26.3359C20.3847 25.9533 20.1496 25.6823 19.6793 25.5228C19.217 25.3634 18.5315 25.2279 17.6228 25.1163C16.8337 25.0127 16.2 24.8772 15.7217 24.7098C15.2434 24.5344 14.8967 24.3033 14.6815 24.0163C14.4663 23.7294 14.3587 23.3667 14.3587 22.9283C14.3587 22.3703 14.6137 21.904 15.1239 21.5294C15.634 21.1547 16.4271 20.9674 17.5032 20.9674C18.3322 20.9674 19.0536 21.0073 19.6674 21.087C20.2811 21.1667 20.7155 21.2464 20.9706 21.3261V21.5652L21.3293 22.6413C21.1619 22.5377 20.9029 22.4301 20.5521 22.3185C20.2094 22.2069 19.7949 22.1152 19.3087 22.0435C18.8224 21.9638 18.2804 21.9239 17.6826 21.9239C16.9333 21.9239 16.4152 22.0036 16.1282 22.1631C15.8413 22.3225 15.6978 22.5536 15.6978 22.8565C15.6978 23.2551 15.917 23.5381 16.3554 23.7055C16.7938 23.8649 17.4195 23.9924 18.2326 24.0881C19.0934 24.1837 19.7789 24.3192 20.2891 24.4946C20.7992 24.6699 21.1659 24.9051 21.3891 25.2C21.6123 25.4949 21.7239 25.8776 21.7239 26.3478C21.7239 26.9776 21.4289 27.4757 20.8391 27.8424C20.2492 28.2011 19.3804 28.3805 18.2326 28.3805Z" fill="white"/>
<path d="M26.6745 28.3805C25.8057 28.3805 25.0365 28.3406 24.3669 28.2609C23.6974 28.1812 23.2151 28.1015 22.9202 28.0218V27.7826L22.681 26.5033C22.7926 26.6308 23.0039 26.7663 23.3147 26.9098C23.6336 27.0533 24.056 27.1768 24.5821 27.2805C25.1082 27.3761 25.7339 27.4239 26.4593 27.4239C27.1129 27.4239 27.6071 27.3801 27.9419 27.2924C28.2847 27.1968 28.5158 27.0692 28.6354 26.9098C28.7629 26.7424 28.8267 26.5511 28.8267 26.3359C28.8267 25.9533 28.5916 25.6823 28.1213 25.5228C27.6589 25.3634 26.9734 25.2279 26.0647 25.1163C25.2756 25.0127 24.6419 24.8772 24.1637 24.7098C23.6854 24.5344 23.3387 24.3033 23.1234 24.0163C22.9082 23.7294 22.8006 23.3667 22.8006 22.9283C22.8006 22.3703 23.0557 21.904 23.5658 21.5294C24.076 21.1547 24.8691 20.9674 25.9452 20.9674C26.7742 20.9674 27.4955 21.0073 28.1093 21.087C28.7231 21.1667 29.1575 21.2464 29.4126 21.3261V21.5652L29.7713 22.6413C29.6039 22.5377 29.3448 22.4301 28.9941 22.3185C28.6513 22.2069 28.2368 22.1152 27.7506 22.0435C27.2644 21.9638 26.7224 21.9239 26.1245 21.9239C25.3753 21.9239 24.8571 22.0036 24.5702 22.1631C24.2832 22.3225 24.1397 22.5536 24.1397 22.8565C24.1397 23.2551 24.3589 23.5381 24.7974 23.7055C25.2358 23.8649 25.8615 23.9924 26.6745 24.0881C27.5354 24.1837 28.2209 24.3192 28.731 24.4946C29.2412 24.6699 29.6079 24.9051 29.831 25.2C30.0542 25.4949 30.1658 25.8776 30.1658 26.3478C30.1658 26.9776 29.8709 27.4757 29.281 27.8424C28.6912 28.2011 27.8224 28.3805 26.6745 28.3805Z" fill="white"/>
<path d="M30.7404 28.2609C30.7723 28.2609 30.8281 28.2051 30.9078 28.0935C30.9875 27.9819 31.0911 27.7946 31.2187 27.5315C31.2745 27.412 31.3701 27.2087 31.5056 26.9218C31.6411 26.6348 31.8005 26.296 31.9839 25.9055C32.1672 25.5149 32.3585 25.1083 32.5578 24.6859C32.7571 24.2555 32.9444 23.8449 33.1197 23.4544C33.3031 23.0638 33.4625 22.721 33.598 22.4261C33.7335 22.1312 33.8292 21.9239 33.885 21.8044C33.9966 21.5493 34.0563 21.366 34.0643 21.2544C34.0723 21.1428 34.0563 21.087 34.0165 21.087H36.1089C36.077 21.087 36.065 21.1428 36.073 21.2544C36.081 21.366 36.1368 21.5493 36.2404 21.8044C36.2962 21.9239 36.3879 22.1312 36.5154 22.4261C36.6429 22.7131 36.7944 23.0518 36.9697 23.4424C37.1531 23.833 37.3404 24.2395 37.5317 24.662C37.723 25.0765 37.9103 25.479 38.0937 25.8696C38.277 26.2602 38.4364 26.6029 38.5719 26.8978C38.7074 27.1928 38.8071 27.404 38.8708 27.5315C38.9984 27.7946 39.114 27.9819 39.2176 28.0935C39.3292 28.2051 39.4129 28.2609 39.4687 28.2609H37.2567C37.3364 28.2449 37.4002 28.1812 37.448 28.0696C37.5038 27.958 37.4958 27.7786 37.4241 27.5315C37.4082 27.4678 37.3803 27.3761 37.3404 27.2565C37.3005 27.137 37.2647 27.0493 37.2328 26.9935C37.1611 26.8341 37.0853 26.7344 37.0056 26.6946C36.9339 26.6547 36.7944 26.6348 36.5871 26.6348H33.5263C33.2951 26.6348 33.1357 26.6507 33.048 26.6826C32.9683 26.7145 32.9005 26.8141 32.8447 26.9815C32.8129 27.0772 32.781 27.1728 32.7491 27.2685C32.7172 27.3641 32.6933 27.4518 32.6774 27.5315C32.6056 27.7946 32.5857 27.9819 32.6176 28.0935C32.6495 28.2051 32.6933 28.2609 32.7491 28.2609H30.7404ZM33.8371 25.6783H36.2404C36.4716 25.6783 36.5991 25.6583 36.623 25.6185C36.6469 25.5786 36.635 25.491 36.5871 25.3555C36.4437 25.0127 36.2763 24.6381 36.085 24.2315C35.9016 23.825 35.7183 23.4265 35.535 23.0359C35.3596 22.6453 35.2042 22.3145 35.0687 22.0435H35.0447C34.8774 22.3942 34.706 22.7609 34.5306 23.1435C34.3553 23.5181 34.1879 23.8728 34.0284 24.2076C33.877 24.5344 33.7534 24.8015 33.6578 25.0087C33.5621 25.216 33.5143 25.3196 33.5143 25.3196C33.4585 25.4471 33.4386 25.5388 33.4545 25.5946C33.4784 25.6504 33.606 25.6783 33.8371 25.6783Z" fill="white"/>
<path d="M40.2361 28.2609C40.2919 28.2609 40.3477 28.2051 40.4035 28.0935C40.4593 27.9819 40.4872 27.7986 40.4872 27.5435V21.8044C40.4872 21.5493 40.4593 21.3699 40.4035 21.2663C40.3477 21.1547 40.2919 21.0949 40.2361 21.087H42.0894C42.0814 21.1109 42.1093 21.1826 42.1731 21.3022C42.2448 21.4218 42.3724 21.5971 42.5557 21.8283C42.6115 21.9 42.7271 22.0435 42.9024 22.2587C43.0858 22.4739 43.3129 22.741 43.5839 23.0598C43.855 23.3707 44.1459 23.7134 44.4568 24.0881C44.7756 24.4547 45.0945 24.8294 45.4133 25.212C45.7401 25.5866 46.051 25.9453 46.3459 26.2881H46.3698V21.8044C46.3698 21.5493 46.3419 21.3699 46.2861 21.2663C46.2303 21.1547 46.1745 21.0949 46.1187 21.087H47.96C47.9042 21.087 47.8484 21.1428 47.7926 21.2544C47.7368 21.366 47.7089 21.5533 47.7089 21.8163V27.5435C47.7089 27.7986 47.7368 27.9819 47.7926 28.0935C47.8484 28.2051 47.9042 28.2609 47.96 28.2609H46.3937C46.4017 28.237 46.3698 28.1652 46.2981 28.0457C46.2263 27.9181 46.0988 27.7428 45.9155 27.5196C45.7959 27.3681 45.6205 27.1569 45.3894 26.8859C45.1662 26.6069 44.9111 26.292 44.6242 25.9413C44.3372 25.5826 44.0303 25.208 43.7035 24.8174C43.3847 24.4268 43.0658 24.0362 42.747 23.6457C42.4361 23.2551 42.1412 22.8924 41.8622 22.5576H41.8263V27.5435C41.8263 27.7986 41.8542 27.9819 41.91 28.0935C41.9658 28.2051 42.0216 28.2609 42.0774 28.2609H40.2361Z" fill="white"/>
<path d="M28.9346 32.6631C28.6266 32.6631 28.3676 32.6341 28.1574 32.5762C27.9473 32.5182 27.8024 32.462 27.7227 32.4077L27.8314 31.8479V31.7392C27.8821 31.808 27.9545 31.8805 28.0487 31.9566C28.1466 32.0327 28.2625 32.0979 28.3966 32.1523C28.5306 32.203 28.6774 32.2283 28.8368 32.2283C29.1049 32.2283 29.2897 32.1722 29.3911 32.0599C29.4962 31.9475 29.5487 31.7501 29.5487 31.4675V29.674C29.5487 29.558 29.5361 29.4765 29.5107 29.4294C29.4853 29.3787 29.46 29.3515 29.4346 29.3479H30.2716C30.2462 29.3479 30.2208 29.3733 30.1955 29.424C30.1701 29.4747 30.1574 29.5599 30.1574 29.6794V31.4675C30.1574 31.7863 30.1067 32.0327 30.0053 32.2066C29.9074 32.3769 29.7661 32.4965 29.5814 32.5653C29.4002 32.6305 29.1846 32.6631 28.9346 32.6631Z" fill="#C61E1E"/>
<path d="M30.8697 32.6088C30.8951 32.6088 30.9205 32.5834 30.9458 32.5327C30.9712 32.482 30.9839 32.3986 30.9839 32.2827V29.674C30.9839 29.558 30.9712 29.4765 30.9458 29.4294C30.9205 29.3787 30.8951 29.3515 30.8697 29.3479H32.5763C32.8987 29.3479 33.1668 29.3787 33.3806 29.4403C33.598 29.5019 33.7719 29.587 33.9023 29.6957C34.0364 29.8044 34.1379 29.9294 34.2067 30.0707C34.2755 30.2084 34.3208 30.3551 34.3426 30.5109C34.3679 30.6667 34.3806 30.8244 34.3806 30.9838C34.3806 31.1287 34.3679 31.2791 34.3426 31.4349C34.3208 31.587 34.2737 31.7338 34.2013 31.8751C34.1324 32.0128 34.031 32.1378 33.8969 32.2501C33.7665 32.3588 33.5926 32.4457 33.3752 32.5109C33.1614 32.5762 32.8951 32.6088 32.5763 32.6088H30.8697ZM31.81 32.1686H32.4784C32.9422 32.1686 33.2737 32.078 33.473 31.8968C33.6723 31.7157 33.7719 31.424 33.7719 31.0218V30.924C33.7719 30.6414 33.7321 30.4186 33.6523 30.2555C33.5726 30.0888 33.4386 29.9711 33.2502 29.9022C33.0618 29.8298 32.8045 29.7936 32.4784 29.7936H31.81C31.7049 29.7936 31.6415 29.8008 31.6197 29.8153C31.6016 29.8262 31.5926 29.8696 31.5926 29.9457V32.0055C31.5926 32.0852 31.6016 32.1323 31.6197 32.1468C31.6415 32.1613 31.7049 32.1686 31.81 32.1686Z" fill="#C61E1E"/>
<path d="M34.9511 32.6088C34.9765 32.6088 35.0019 32.5834 35.0272 32.5327C35.0526 32.482 35.0653 32.3986 35.0653 32.2827V29.674C35.0653 29.558 35.0526 29.4765 35.0272 29.4294C35.0019 29.3787 34.9765 29.3515 34.9511 29.3479H35.9566C35.9493 29.3479 35.9529 29.3733 35.9674 29.424C35.9819 29.4747 36.0163 29.5617 36.0707 29.6849C36.0924 29.732 36.1305 29.8153 36.1848 29.9349C36.2428 30.0544 36.3116 30.1975 36.3913 30.3642C36.4711 30.5272 36.5562 30.703 36.6468 30.8914C36.7374 31.0798 36.8298 31.2718 36.924 31.4675C37.0182 31.6595 37.1069 31.8407 37.1903 32.0109H37.1957C37.2827 31.837 37.3732 31.6541 37.4674 31.462C37.5616 31.2664 37.6558 31.0725 37.75 30.8805C37.8442 30.6885 37.9312 30.5109 38.0109 30.3479C38.0906 30.1812 38.1577 30.0399 38.212 29.924C38.27 29.8044 38.3098 29.7211 38.3316 29.674C38.3823 29.558 38.4149 29.4747 38.4294 29.424C38.4475 29.3733 38.4529 29.3479 38.4457 29.3479H39.4457C39.4203 29.3479 39.395 29.3733 39.3696 29.424C39.3442 29.4747 39.3316 29.5599 39.3316 29.6794V32.2827C39.3316 32.3986 39.3442 32.482 39.3696 32.5327C39.395 32.5834 39.4203 32.6088 39.4457 32.6088H38.6142C38.6395 32.6088 38.6631 32.5834 38.6848 32.5327C38.7102 32.482 38.7229 32.3986 38.7229 32.2827V30.0327H38.712C38.6178 30.2211 38.5163 30.4276 38.4077 30.6522C38.299 30.8733 38.1921 31.0925 38.087 31.3099C37.9819 31.5236 37.8877 31.7175 37.8044 31.8914C37.7247 32.0617 37.6649 32.1921 37.625 32.2827C37.5743 32.395 37.5471 32.4765 37.5435 32.5273C37.5435 32.578 37.5526 32.6051 37.5707 32.6088H36.8098C36.8279 32.6088 36.837 32.5852 36.837 32.5381C36.837 32.4874 36.8098 32.4023 36.7555 32.2827C36.7229 32.2066 36.6667 32.0852 36.587 31.9186C36.5073 31.7519 36.4149 31.5599 36.3098 31.3425C36.2084 31.1251 36.1033 30.9022 35.9946 30.674C35.8859 30.4421 35.7845 30.2283 35.6903 30.0327H35.674V32.2827C35.674 32.3986 35.6866 32.482 35.712 32.5327C35.7374 32.5834 35.7627 32.6088 35.7881 32.6088H34.9511Z" fill="#C61E1E"/>
<path d="M45.6515 19.0664L42.3906 18.5229V19.0664H45.6515Z" stroke="white"/>
<path d="M4.34655 19.0635L7.60742 18.52V19.0635H4.34655Z" stroke="white"/>
<path d="M45.6515 30.9365L42.3906 31.48V30.9365H45.6515Z" stroke="white"/>
<path d="M4.34655 30.9365L7.60742 31.48V30.9365H4.34655Z" stroke="white"/>
</svg>
