<svg width="34" height="33" viewBox="0 0 34 33" fill="none" xmlns="http://www.w3.org/2000/svg">
<path d="M6 9L9 5V14L6 18V9Z" fill="#6DA7F6"/>
<path fill-rule="evenodd" clip-rule="evenodd" d="M20.4842 9H25L28 5H23.8175L20.4842 9ZM22.5158 5H9L6 9H19.1825L22.5158 5Z" fill="#87B6F5"/>
<path fill-rule="evenodd" clip-rule="evenodd" d="M20.4842 18H25L28 14H23.8175L20.4842 18ZM22.5158 14H9L6 18H19.1825L22.5158 14Z" fill="#5499F6"/>
<path fill-rule="evenodd" clip-rule="evenodd" d="M20.4842 27H25L28 23H23.8175L20.4842 27ZM22.5158 23H9L6 27H19.1825L22.5158 23Z" fill="#2F80ED"/>
<path d="M25 18L28 14V23L25 27L25 18Z" fill="#418CF1"/>
</svg>
